<?xml version="1.0" encoding="utf-8"?>
<!-- Generator: Adobe Illustrator 25.2.1, SVG Export Plug-In . SVG Version: 6.00 Build 0)  -->
<svg version="1.1" id="_x3C_Layer_x3E_" xmlns="http://www.w3.org/2000/svg" xmlns:xlink="http://www.w3.org/1999/xlink" x="0px"
	 y="0px" viewBox="0 0 4695 4695" style="enable-background:new 0 0 4695 4695;" xml:space="preserve">
<style type="text/css">
	.st0{fill:#587693;}
	.st1{fill:#7294C4;}
	.st2{fill:#97C6FF;}
	.st3{fill:#00EDFF;}
	.st4{opacity:0.4;}
	.st5{fill:#24B1FF;}
	.st6{fill:#49C6FC;}
	.st7{fill:#008CFF;}
	.st8{fill:#0074FF;}
	.st9{fill:#31B5FF;}
	.st10{fill:#69BBFF;}
	.st11{fill:#4AC8FF;}
</style>
<path class="st0" d="M3575.5,3500.3v251.2c0,182.7-119.9,362.6-359.7,501c-479.6,276.9-1256.1,276.9-1735.7,0
	c-239.8-138.4-359.7-318.3-359.7-501v-251.2H3575.5z"/>
<path class="st1" d="M3575.5,3404.9v251.2c0,182.7-119.9,362.6-359.7,501c-479.6,276.9-1256.1,276.9-1735.7,0
	c-239.8-138.4-359.7-318.3-359.7-501v-251.2H3575.5z"/>
<g id="Base">
	<ellipse class="st2" cx="2347.7" cy="3404.9" rx="1227.6" ry="708.7"/>
	<path class="st3" d="M2189.9,3946.3L1409.8,3496c-87.1-50.3-76.2-138.2,24.4-196.2l731.3-422.2c100.6-58.1,252.8-64.4,339.9-14.1
		l780.1,450.4c87.1,50.3,76.2,138.2-24.4,196.2l-731.3,422.2C2429.2,3990.3,2277,3996.6,2189.9,3946.3z"/>
	<path class="st2" d="M2189.9,3893l-687.7-397c-87.1-50.3-76.2-138.2,24.4-196.2l638.9-368.8c100.6-58.1,252.8-64.4,339.9-14.1
		l687.7,397c87.1,50.3,76.2,138.2-24.4,196.2l-638.9,368.8C2429.2,3937,2277,3943.3,2189.9,3893z"/>
	<path class="st3" d="M2510.4,3498.8c-89.9,51.9-235.6,51.9-325.4,0c-89.9-51.9-89.9-136,0-187.9c89.9-51.9,235.6-51.9,325.5,0
		C2600.2,3362.8,2600.2,3446.9,2510.4,3498.8z"/>
</g>
<g id="Lightfield" class="st4">
	<path class="st5" d="M4307.7,1469.4l-964.9,1939.8c-4.3,35.7-31.4,72.8-81.4,101.3l-732.2,421.1c-99.9,58.5-252.6,65.7-339.7,14.3
		l-779.3-449.6c-40-22.8-60-54.2-58.5-87.1L412.4,1516.5c17.1,17.1,37.1,34.3,62.8,48.5l1557.3,899.2
		c174.1,99.9,478.2,88.5,679.4-28.5l1458.8-842.1C4234.9,1556.5,4280.6,1513.6,4307.7,1469.4z"/>
	<path class="st6" d="M4307.7,1469.4c-27.1,44.2-72.8,87.1-137,124.2l-1458.8,842.1c-201.3,117-505.3,128.5-679.4,28.5L475.2,1565
		c-25.7-14.3-45.7-31.4-62.8-48.5c-101.3-101.3-60-244.1,111.3-342.6L1984,330.4c201.3-115.6,505.3-128.5,678-27.1L4219.2,1201
		C4337.7,1269.6,4366.3,1373.8,4307.7,1469.4z"/>
</g>
<g id="House">
	<g>
		<polygon class="st7" points="3536.2,2629.2 2347.6,3315.5 2347.6,2404.2 3536.2,1717.9 		"/>
		<g>
			<g>
				<polygon class="st8" points="2566.3,2901 2466.4,2958.6 2466.4,2623.8 2566.3,2566.1 				"/>
				<polygon class="st8" points="2727.9,2807.7 2628.1,2865.3 2628.1,2530.4 2727.9,2472.8 				"/>
			</g>
			<g>
				<polygon class="st8" points="3255.7,2503 3155.8,2560.6 3155.8,2225.7 3255.7,2168.1 				"/>
				<polygon class="st8" points="3417.3,2409.6 3317.5,2467.3 3317.5,2132.4 3417.3,2074.8 				"/>
			</g>
		</g>
	</g>
	<g>
		<polygon class="st7" points="1082.5,1673.8 1753.3,1435.2 2424.1,2448.3 		"/>
		<polygon class="st9" points="2347.6,3315.5 1159,2629.2 1159,1717.9 2347.6,2404.2 		"/>
		<polygon class="st9" points="1159,1717.9 1753.3,1506.6 2347.6,2404.2 		"/>
		<g>
			<g>
				<polygon class="st10" points="1377.7,2467.3 1277.8,2409.6 1277.8,2074.8 1377.7,2132.4 				"/>
				<polygon class="st10" points="1539.3,2560.6 1439.5,2503 1439.5,2168.1 1539.3,2225.7 				"/>
			</g>
			<g>
				<polygon class="st10" points="2067.1,2865.3 1967.2,2807.7 1967.2,2472.8 2067.1,2530.4 				"/>
				<polygon class="st10" points="2228.7,2958.6 2128.9,2901 2128.9,2566.1 2228.7,2623.8 				"/>
			</g>
		</g>
		<g>
			<polygon class="st10" points="1722.4,2109.1 1622.5,2051.4 1622.5,1716.6 1722.4,1774.2 			"/>
			<polygon class="st10" points="1884,2202.4 1784.2,2144.8 1784.2,1809.9 1884,1867.5 			"/>
		</g>
	</g>
	<polygon class="st9" points="2941.7,748.8 1753.3,1435.2 2424.1,2448.3 3612.5,1761.9 	"/>
	<polygon class="st11" points="2270.9,987.3 1082.5,1673.8 1753.3,1435.2 2941.7,748.8 	"/>
</g>
</svg>
