# ProBuilder 5.2.0
# https://unity3d.com/unity/features/worldbuilding/probuilder
# 03/12/2023 18:47:12

mtllib ./WallFrontDoor.mtl
o WallFrontDoor

g WallFrontDoor
v 0.45 0 0.15
v -0.45 0 0.15
v -1 0 0.15
v -0.45 2.15 0.15
v 1 0 0.15
v -1 3 0.15
v 0.45 2.15 0.15
v 1 3 0.15
v 0.45 0 -0.15
v -0.45 0 -0.15
v 1 0 -0.15
v 1 3 -0.15
v 0.45 2.15 -0.15
v -1 0 -0.15
v -0.45 2.15 -0.15
v -1 3 -0.15

vt 0.45 0
vt -0.45 0
vt -1 0
vt -0.45 2.15
vt 1 0
vt -1 3
vt 0.45 2.15
vt 1 3
vt -0.45 0
vt 0.45 0
vt -0.45 2.15
vt 0.45 2.15
vt -0.45 0.15
vt 0.45 0.15
vt -0.45 -0.15
vt 0.45 -0.15
vt 0.15 0
vt -0.15 0
vt 0.15 2.15
vt -0.15 2.15
vt 0.15 0
vt -0.15 0
vt 0.15 2.15
vt -0.15 2.15
vt 1 -0.15
vt 1 0.15
vt -1 -0.15
vt -1 0.15
vt -0.15 3
vt 0.15 3
vt 0.15 3
vt -0.15 3

vn 0 0 1
vn 0 0 -1
vn 0 -1 0
vn 1 0 0
vn -1 0 0
vn 0 1 0

usemtl M_SmoothBrick_Gray
f 4/4/1 3/3/1 2/2/1
f 6/6/1 3/3/1 4/4/1
f 8/8/1 4/4/1 7/7/1
f 8/8/1 6/6/1 4/4/1
f 8/8/1 7/7/1 5/5/1
f 7/7/1 1/1/1 5/5/1
f 6/30/5 16/29/5 14/22/5
f 14/22/5 3/21/5 6/30/5
f 5/18/4 11/17/4 12/31/4
f 12/31/4 8/32/4 5/18/4

usemtl M_CleanPlaster_White
f 13/11/2 12/6/2 11/3/2
f 11/3/2 9/9/2 13/11/2
f 15/12/2 12/6/2 13/11/2
f 15/12/2 16/8/2 12/6/2
f 15/12/2 14/5/2 16/8/2
f 14/5/2 15/12/2 10/10/2
f 13/16/3 7/14/3 4/13/3
f 4/13/3 15/15/3 13/16/3
f 4/20/4 2/18/4 10/17/4
f 10/17/4 15/19/4 4/20/4
f 13/24/5 9/22/5 1/21/5
f 1/21/5 7/23/5 13/24/5
f 3/28/3 14/27/3 10/15/3
f 10/15/3 2/13/3 3/28/3
f 11/25/3 5/26/3 1/14/3
f 1/14/3 9/16/3 11/25/3
f 8/28/6 12/27/6 16/25/6
f 16/25/6 6/26/6 8/28/6

