# ProBuilder 5.2.0
# https://unity3d.com/unity/features/worldbuilding/probuilder
# 28/11/2023 01:02:29

mtllib ./WallCorner.mtl
o WallCorner

g WallCorner
v -0.1499998 3 0.15
v -0.1499998 0 0.15
v -0.1499998 0 -0.15
v -0.1499998 3 -0.15
v 1 3 -0.15
v 1 0 -0.15
v 1 0 0.15
v 1 3 0.15
v 0.1499998 3 -1
v -0.1499998 3 -1
v -0.1499998 0 -1
v 0.1499998 0 -1
v 0.1499998 0 -0.15
v 0.1499998 3 -0.15
v 0.1499998 3 0.15
v 0.1499998 0 0.15

vt 0.15 3
vt 0.15 0
vt -0.15 0
vt -0.15 3
vt 1 3
vt 0 0
vt 0 3
vt 1 0
vt -1 0.15
vt 0 -0.15
vt -1 -0.15
vt 0 0.15
vt 1 0.15
vt 1 -0.15
vt -1 0
vt -1 3
vt -0.1499998 0.15
vt -0.1499998 -0.15
vt -0.1499998 3
vt 0.1499998 3
vt 0.1499998 0
vt -0.1499998 0
vt 0.1499998 0.15
vt 0.1499998 -0.15
vt -0.1499998 -1
vt 0.1499998 -1

vn -1 0 0
vn 1 0 0
vn 0 1 0
vn 0 -1 0
vn 0 0 -1
vn 0 0 1

usemtl M_SmoothBrick_Gray
f 4/4/1 3/3/1 2/2/1 1/1/1
f 8/4/2 7/3/2 6/2/2 5/1/2
f 7/8/3 8/5/3 8/7/3 7/6/3
f 12/22/5 11/21/5 10/20/5 9/19/5
f 15/20/6 1/19/6 2/22/6 16/21/6
f 8/5/6 15/20/6 16/21/6 7/8/6
f 10/16/1 11/15/1 3/3/1 4/4/1

usemtl M_CleanPlaster_White
f 8/12/3 8/9/3 5/11/3 5/10/3
f 6/10/3 6/14/3 7/13/3 7/12/3
f 5/16/3 6/15/3 6/6/3 5/7/3
f 6/15/5 13/22/5 14/19/5 5/16/5
f 15/17/3 8/9/3 5/11/3 14/18/3
f 6/14/4 7/13/4 16/23/4 13/24/4
f 1/23/3 15/17/3 14/18/3 4/24/3
f 13/24/4 16/23/4 2/17/4 3/18/4
f 9/25/3 10/26/3 4/24/3 14/18/3
f 11/25/4 12/26/4 13/24/4 3/18/4
f 12/8/2 9/5/2 14/1/2 13/2/2

