# ProBuilder 5.2.0
# https://unity3d.com/unity/features/worldbuilding/probuilder
# 29/11/2023 23:55:35

mtllib ./WallInterior.mtl
o WallInterior

g WallInterior
v 1 0 0.05000001
v 0 0 0.05000001
v 1 3 0.05000001
v 0 3 0.05000001
v 0 0 -0.05000001
v 0 3 -0.05000001
v 1 0 -0.05000001
v 1 3 -0.05000001

vt 1 0
vt 0 0
vt 1 3
vt 0 3
vt 0.05000001 0
vt -0.05000001 0
vt 0.05000001 3
vt -0.05000001 3
vt -1 0
vt -1 3
vt -1 0.05000001
vt 0 0.05000001
vt -1 -0.05000001
vt 0 -0.05000001
vt 1 -0.05000001
vt 1 0.05000001

vn 0 0 1
vn -1 0 0
vn 0 0 -1
vn 1 0 0
vn 0 1 0
vn 0 -1 0

usemtl M_CleanPlaster_White
f 3/3/1 4/4/1 2/2/1 1/1/1
f 4/7/2 6/8/2 5/6/2 2/5/2
f 6/4/3 8/10/3 7/9/3 5/2/3
f 8/7/4 3/8/4 1/6/4 7/5/4
f 8/13/5 6/14/5 4/12/5 3/11/5
f 1/16/6 2/12/6 5/14/6 7/15/6

