# ProBuilder 5.2.0
# https://unity3d.com/unity/features/worldbuilding/probuilder
# 29/11/2023 18:26:29

mtllib ./WallInterior.mtl
o WallInterior

g WallInterior
v -1 0 0.05000001
v -1 0 -0.05000001
v -1 3 0.05000001
v -1 3 -0.05000001
v 1 0 -0.05000001
v 1 0 0.05000001
v 1 3 -0.05000001
v 1 3 0.05000001
v 0 0 0.05000001
v 0 0 -0.05000001
v 0 3 0.05000001
v 0 3 -0.05000001

vt 0.05000001 0
vt -0.05000001 0
vt 0.05000001 3
vt -0.05000001 3
vt 0 0.05000001
vt 1 0.05000001
vt 1 -0.05000001
vt 0 -0.05000001
vt -1 -0.05000001
vt -1 0.05000001
vt 0 0
vt -1 0
vt -1 3
vt 0 3
vt 1 3
vt 1 0

vn -1 0 0
vn 1 0 0
vn 0 -1 0
vn 0 0 1
vn 0 0 -1
vn 0 1 0

usemtl M_CleanPlaster_White
f 9/5/3 10/8/3 6/6/3
f 2/9/3 10/8/3 9/5/3
f 1/10/3 2/9/3 9/5/3
f 10/8/3 5/7/3 6/6/3
f 4/4/1 2/2/1 1/1/1
f 1/1/1 3/3/1 4/4/1
f 8/4/2 6/2/2 5/1/2
f 5/1/2 7/3/2 8/4/2
f 3/13/4 1/12/4 9/11/4
f 9/11/4 11/14/4 3/13/4
f 11/14/4 9/11/4 6/16/4
f 6/16/4 8/15/4 11/14/4
f 4/15/5 12/14/5 10/11/5
f 10/11/5 2/16/5 4/15/5
f 12/14/5 7/13/5 5/12/5
f 5/12/5 10/11/5 12/14/5
f 11/5/6 12/8/6 4/7/6
f 4/7/6 3/6/6 11/5/6
f 8/10/6 7/9/6 12/8/6
f 12/8/6 11/5/6 8/10/6

