# ProBuilder 5.2.0
# https://unity3d.com/unity/features/worldbuilding/probuilder
# 03/12/2023 22:55:19

mtllib ./FoundationWall.mtl
o FoundationWall

g FoundationWall
v 1 -1 0.15
v 0 -1 0.15
v 1 0 0.15
v 0 0 0.15
v 0 -1 -0.15
v 0 0 -0.15
v 1 -1 -0.15
v 1 0 -0.15

vt 1 -1
vt 0 -1
vt 1 0
vt 0 0
vt 0.15 -1
vt -0.15 -1
vt 0.15 0
vt -0.15 0
vt -1 -1
vt -1 0
vt 0.15 -1
vt -0.15 -1
vt 0.15 0
vt -0.15 0
vt -1 0.15
vt 0 0.15
vt -1 -0.15
vt 0 -0.15
vt 1 -0.15
vt 1 0.15

vn 0 0 1
vn -1 0 0
vn 0 0 -1
vn 1 0 0
vn 0 1 0
vn 0 -1 0

usemtl M_BareCleanConcrete
f 3/3/1 4/4/1 2/2/1 1/1/1
f 4/7/2 6/8/2 5/6/2 2/5/2
f 6/4/3 8/10/3 7/9/3 5/2/3
f 8/13/4 3/14/4 1/12/4 7/11/4
f 8/17/5 6/18/5 4/16/5 3/15/5
f 1/20/6 2/16/6 5/18/6 7/19/6

